0
SECTION
2
HEADER
9
$INSUNITS
70
4
9
$ACADVER
1
AC1014
9
$HANDSEED
5
FFFF
0
ENDSEC
0
SECTION
2
TABLES
0
TABLE
2
VPORT
5
8
100
AcDbSymbolTable
0
ENDTAB
0
TABLE
2
LTYPE
5
5
100
AcDbSymbolTable
0
LTYPE
5
14
100
AcDbSymbolTableRecord
100
AcDbLinetypeTableRecord
2
BYBLOCK
70
0
0
LTYPE
5
15
100
AcDbSymbolTableRecord
100
AcDbLinetypeTableRecord
2
BYLAYER
70
0
0
ENDTAB
0
TABLE
2
LAYER
5
2
100
AcDbSymbolTable
70
2
0
LAYER
5
50
100
AcDbSymbolTableRecord
100
AcDbLayerTableRecord
2
0
70
0
6
CONTINUOUS
0
ENDTAB
0
TABLE
2
STYLE
5
3
100
AcDbSymbolTable
70
1
0
STYLE
5
11
100
AcDbSymbolTableRecord
100
AcDbTextStyleTableRecord
2
STANDARD
70
0
0
ENDTAB
0
TABLE
2
VIEW
5
6
100
AcDbSymbolTable
70
0
0
ENDTAB
0
TABLE
2
UCS
5
7
100
AcDbSymbolTable
70
0
0
ENDTAB
0
TABLE
2
APPID
5
9
100
AcDbSymbolTable
70
2
0
APPID
5
12
100
AcDbSymbolTableRecord
100
AcDbRegAppTableRecord
2
ACAD
70
0
0
ENDTAB
0
TABLE
2
DIMSTYLE
5
A
100
AcDbSymbolTable
70
1
0
ENDTAB
0
TABLE
2
BLOCK_RECORD
5
1
100
AcDbSymbolTable
70
1
0
BLOCK_RECORD
5
1F
100
AcDbSymbolTableRecord
100
AcDbBlockTableRecord
2
*MODEL_SPACE
0
BLOCK_RECORD
5
1B
100
AcDbSymbolTableRecord
100
AcDbBlockTableRecord
2
*PAPER_SPACE
0
ENDTAB
0
ENDSEC
0
SECTION
2
BLOCKS
0
BLOCK
5
20
100
AcDbEntity
100
AcDbBlockBegin
2
*MODEL_SPACE
0
ENDBLK
5
21
100
AcDbEntity
100
AcDbBlockEnd
0
BLOCK
5
1C
100
AcDbEntity
100
AcDbBlockBegin
2
*PAPER_SPACE
0
ENDBLK
5
1D
100
AcDbEntity
100
AcDbBlockEnd
0
ENDSEC
0
SECTION
2
ENTITIES
0
LWPOLYLINE
5
100
100
AcDbEntity
8
0
100
AcDbPolyline
90
4
70
1
43
0.0
10
-196.0000015944
20
-40.000000432100002
10
-124.0000015944
20
-40.000000432100002
10
-124.0000015944
20
-65.000000432099995
10
-196.0000015944
20
-65.000000432099995
0
LWPOLYLINE
5
101
100
AcDbEntity
8
0
100
AcDbPolyline
90
19
70
1
43
0.0
10
-292.00000159440003
20
-30.000000432100002
10
-107.00000159440002
20
-30.000000432100002
10
-107.00000159440002
20
-122.00000043209999
10
-128.00000190734863
20
-122.00000043209999
10
-128.00000190734863
20
-132.00000196695328
10
-148.00000220537186
20
-132.00000196695328
10
-148.00000220537186
20
-122.00000043209999
10
-159.00000236928463
20
-122.00000043209999
10
-161.0000015944
20
-122.00000043209999
10
-161.0000015944
20
-114.00000169873238
10
-161.0000015944
20
-87.000001296401024
10
-186.0000015944
20
-87.000001296401024
10
-186.0000015944
20
-117.00000174343586
10
-186.0000015944
20
-122.00000043209999
10
-234.00000348687172
20
-122.00000043209999
10
-234.00000348687172
20
-132.00000196695328
10
-254.00000378489494
20
-132.00000196695328
10
-254.00000378489494
20
-122.00000043209999
10
-292.00000159440003
20
-122.00000043209999
0
LINE
5
102
100
AcDbEntity
8
0
100
AcDbLine
10
-390
20
0
30
0
11
54.442797118282726
21
0
31
0
0
LINE
5
103
100
AcDbEntity
8
0
100
AcDbLine
10
0
20
40
30
0
11
0
21
-220
31
0
0
LWPOLYLINE
5
104
100
AcDbEntity
8
0
100
AcDbPolyline
90
4
70
1
43
0.0
10
-113.50000159440002
20
-67.000000432099995
10
-110.00000159440003
20
-67.000000432099995
10
-110.00000159440003
20
-87.000000432099995
10
-113.50000159440002
20
-87.000000432099995
0
LINE
5
105
100
AcDbEntity
8
0
100
AcDbLine
10
-199.50000159440003
20
20
30
0
11
-199.50000159440003
21
-170
31
0
0
LWPOLYLINE
5
106
100
AcDbEntity
8
0
100
AcDbPolyline
90
4
70
1
43
0.0
10
-285.50000159440003
20
-67.000000432099995
10
-289.00000159440003
20
-67.000000432099995
10
-289.00000159440003
20
-87.000000432099995
10
-285.50000159440003
20
-87.000000432099995
0
LWPOLYLINE
5
107
100
AcDbEntity
8
0
100
AcDbPolyline
90
4
70
1
43
0.0
10
-239.00000348687172
20
-125.50000190734863
10
-249.00000363588333
20
-125.50000190734863
10
-249.00000363588333
20
-129.50000196695328
10
-239.00000348687172
20
-129.50000196695328
0
LWPOLYLINE
5
108
100
AcDbEntity
8
0
100
AcDbPolyline
90
4
70
1
43
0.0
10
-143.00000205636024
20
-125.50000190734863
10
-133.00000190734863
20
-125.50000190734863
10
-133.00000190734863
20
-129.50000196695328
10
-143.00000205636024
20
-129.50000196695328
0
LWPOLYLINE
5
109
100
AcDbEntity
8
0
100
AcDbPolyline
90
4
70
1
43
0.0
10
-230.00000342726707
20
-109.00000162422657
10
-218.00000324845314
20
-109.00000162422657
10
-218.00000324845314
20
-115.00000171363354
10
-230.00000342726707
20
-115.00000171363354
0
LWPOLYLINE
5
110
100
AcDbEntity
8
0
100
AcDbPolyline
90
4
70
1
43
0.0
10
-205.00000305473804
20
-109.00000162422657
10
-193.00000287592411
20
-109.00000162422657
10
-193.00000287592411
20
-115.00000171363354
10
-205.00000305473804
20
-115.00000171363354
0
CIRCLE
5
111
100
AcDbEntity
8
0
100
AcDbCircle
10
-224.00000333786011
20
-91.000001356005669
30
0
40
1.5000000223517418
210
0
220
0
230
1
0
CIRCLE
5
112
100
AcDbEntity
8
0
100
AcDbCircle
10
-199.00000296533108
20
-91.000001356005669
30
0
40
1.5000000223517418
210
0
220
0
230
1
0
LWPOLYLINE
5
113
100
AcDbEntity
8
0
100
AcDbPolyline
90
4
70
1
43
0.0
10
-257.00000382959843
20
-90.000000432100009
10
-233.0000038295984
20
-90.000000432100009
10
-233.0000038295984
20
-95.000000432100009
10
-257.00000382959843
20
-95.000000432100009
0
LWPOLYLINE
5
114
100
AcDbEntity
8
0
100
AcDbPolyline
90
4
70
1
43
0.0
10
-216.00000321865082
20
-37.000000432100002
10
-212.50000321865082
20
-37.000000432100002
10
-212.50000321865082
20
-47.000000432100002
10
-216.00000321865082
20
-47.000000432100002
0
CIRCLE
5
115
100
AcDbEntity
8
0
100
AcDbCircle
10
-122.5000015944
20
-68.000001013242979
30
0
40
1.4999999999999938
210
0
220
0
230
1
0
CIRCLE
5
116
100
AcDbEntity
8
0
100
AcDbCircle
10
-122.5000015944
20
-37.000000551342964
30
0
40
1.5000000000000018
210
0
220
0
230
1
0
CIRCLE
5
117
100
AcDbEntity
8
0
100
AcDbCircle
10
-197.50000159440003
20
-37.000000551342964
30
0
40
1.5000000000000018
210
0
220
0
230
1
0
CIRCLE
5
118
100
AcDbEntity
8
0
100
AcDbCircle
10
-197.50000159439998
20
-68.000001013278961
30
0
40
1.4999999999999938
210
0
220
0
230
1
0
LWPOLYLINE
5
119
100
AcDbEntity
8
0
100
AcDbPolyline
90
4
70
1
43
0.0
10
-156.0000015944
20
-81.000001206994057
10
-141.0000015944
20
-81.000001206994057
10
-141.0000015944
20
-84.500001206994057
10
-156.0000015944
20
-84.500001206994057
0
LWPOLYLINE
5
120
100
AcDbEntity
8
0
100
AcDbPolyline
90
4
70
1
43
0.0
10
-144.46247959905807
20
-110.25044582185089
10
-132.4624795990581
20
-110.25044582185089
10
-132.4624795990581
20
-114.25044582185089
10
-144.46247959905807
20
-114.25044582185089
0
CIRCLE
5
121
100
AcDbEntity
8
0
100
AcDbCircle
10
-138.79999689757824
20
-92.099997941404581
30
0
40
1.50000000000001
210
0
220
0
230
1
0
ENDSEC
0
SECTION
2
OBJECTS
0
DICTIONARY
5
C
100
AcDbDictionary
3
ACAD_GROUP
350
D
3
ACAD_MLINESTYLE
350
17
0
DICTIONARY
5
D
100
AcDbDictionary
0
DICTIONARY
5
1A
330
C
100
AcDbDictionary
0
DICTIONARY
5
17
100
AcDbDictionary
0
ENDSEC
0
EOF
