0
SECTION
2
HEADER
9
$INSUNITS
70
4
9
$ACADVER
1
AC1014
9
$HANDSEED
5
FFFF
0
ENDSEC
0
SECTION
2
TABLES
0
TABLE
2
VPORT
5
8
100
AcDbSymbolTable
0
ENDTAB
0
TABLE
2
LTYPE
5
5
100
AcDbSymbolTable
0
LTYPE
5
14
100
AcDbSymbolTableRecord
100
AcDbLinetypeTableRecord
2
BYBLOCK
70
0
0
LTYPE
5
15
100
AcDbSymbolTableRecord
100
AcDbLinetypeTableRecord
2
BYLAYER
70
0
0
ENDTAB
0
TABLE
2
LAYER
5
2
100
AcDbSymbolTable
70
2
0
LAYER
5
50
100
AcDbSymbolTableRecord
100
AcDbLayerTableRecord
2
0
70
0
6
CONTINUOUS
0
ENDTAB
0
TABLE
2
STYLE
5
3
100
AcDbSymbolTable
70
1
0
STYLE
5
11
100
AcDbSymbolTableRecord
100
AcDbTextStyleTableRecord
2
STANDARD
70
0
0
ENDTAB
0
TABLE
2
VIEW
5
6
100
AcDbSymbolTable
70
0
0
ENDTAB
0
TABLE
2
UCS
5
7
100
AcDbSymbolTable
70
0
0
ENDTAB
0
TABLE
2
APPID
5
9
100
AcDbSymbolTable
70
2
0
APPID
5
12
100
AcDbSymbolTableRecord
100
AcDbRegAppTableRecord
2
ACAD
70
0
0
ENDTAB
0
TABLE
2
DIMSTYLE
5
A
100
AcDbSymbolTable
70
1
0
ENDTAB
0
TABLE
2
BLOCK_RECORD
5
1
100
AcDbSymbolTable
70
1
0
BLOCK_RECORD
5
1F
100
AcDbSymbolTableRecord
100
AcDbBlockTableRecord
2
*MODEL_SPACE
0
BLOCK_RECORD
5
1B
100
AcDbSymbolTableRecord
100
AcDbBlockTableRecord
2
*PAPER_SPACE
0
ENDTAB
0
ENDSEC
0
SECTION
2
BLOCKS
0
BLOCK
5
20
100
AcDbEntity
100
AcDbBlockBegin
2
*MODEL_SPACE
0
ENDBLK
5
21
100
AcDbEntity
100
AcDbBlockEnd
0
BLOCK
5
1C
100
AcDbEntity
100
AcDbBlockBegin
2
*PAPER_SPACE
0
ENDBLK
5
1D
100
AcDbEntity
100
AcDbBlockEnd
0
ENDSEC
0
SECTION
2
ENTITIES
0
LWPOLYLINE
5
100
100
AcDbEntity
8
0
100
AcDbPolyline
90
4
70
1
43
0.0
10
-8.3670799027598957
20
63.309629900521657
10
5.6329200972401061
20
63.309629900521657
10
5.6329200972401061
20
51.309629900521657
10
-8.3670799027598957
20
51.309629900521657
0
LWPOLYLINE
5
101
100
AcDbEntity
8
0
100
AcDbPolyline
90
4
70
1
43
0.0
10
24.63292009724011
20
63.309629900521657
10
38.632920097240117
20
63.309629900521657
10
38.632920097240117
20
51.309629900521657
10
24.63292009724011
20
51.309629900521657
0
LWPOLYLINE
5
102
100
AcDbEntity
8
0
100
AcDbPolyline
90
4
70
1
43
0.0
10
-24.867079902759883
20
49.309629900521657
10
-4.8670799027598832
20
49.309629900521657
10
-4.8670799027598832
20
45.809629900521657
10
-24.867079902759883
20
45.809629900521657
0
LWPOLYLINE
5
103
100
AcDbEntity
8
0
100
AcDbPolyline
90
4
70
1
43
0.0
10
-8.5000001266598701
20
33.000000491738319
10
-2.500000037252903
20
33.000000491738319
10
-2.500000037252903
20
21.000000312924385
10
-8.5000001266598701
20
21.000000312924385
0
CIRCLE
5
104
100
AcDbEntity
8
0
100
AcDbCircle
10
-30.39999932050705
20
38.299999143928289
30
0
40
1.5000000000000011
210
0
220
0
230
1
0
CIRCLE
5
105
100
AcDbEntity
8
0
100
AcDbCircle
10
-30.899999309331179
20
16.899999622255564
30
0
40
1.4999999999999993
210
0
220
0
230
1
0
LWPOLYLINE
5
106
100
AcDbEntity
8
0
100
AcDbPolyline
90
27
70
1
43
0.0
10
-77.367079902759869
20
8.3096299005216565
10
-25.000000372529001
20
8.3096299005216672
10
-25.000000372529083
20
-1.6903700994783313
10
-5.0000000745290372
20
-1.6903700994784867
10
-5.0000000745290398
20
8.3096299005216281
10
47.632920097240124
20
8.3096299005216281
10
47.632920097240117
20
43.309919732174478
10
57.632920097240117
20
43.309919732174478
10
57.632920097240117
20
63.309919732174478
10
47.632920097240117
20
63.309919732174478
10
47.632920097240117
20
100.30991973217448
10
27.765350957645119
20
114.22134140962143
10
33.501115321156362
20
122.41286185251083
10
17.118074435376499
20
133.8843905795317
10
11.382310071866097
20
125.69287013664179
10
-13.221079902761144
20
142.92034926238901
10
-14.867079902761144
20
142.92034926238901
10
-16.512665980261147
20
142.92034926238901
10
-41.278442787006696
20
125.57916565268818
10
-43.285960314235354
20
128.44619780769963
10
-59.669001200015174
20
116.97466908067867
10
-57.661483672786112
20
114.10763692566658
10
-77.367079902759869
20
100.30962990052167
10
-77.367079902759869
20
63.309629900521671
10
-87.367079902759883
20
63.309629900521671
10
-87.367079902759883
20
43.309629900521671
10
-77.367079902759869
20
43.309629900521671
0
LWPOLYLINE
5
107
100
AcDbEntity
8
0
100
AcDbPolyline
90
4
70
1
43
0.0
10
-20.000000372529044
20
4.809629900521629
10
-10.000000223529037
20
4.809629900521629
10
-10.000000223529037
20
0.80962990052162886
10
-20.000000372529044
20
0.8096299005216292
0
LWPOLYLINE
5
108
100
AcDbEntity
8
0
100
AcDbPolyline
90
4
70
1
43
0.0
10
-30.333691381045792
20
130.42485835929381
10
-22.163982356639686
20
136.19164728004839
10
-20.145606234375553
20
133.33224912150621
10
-28.315315258781709
20
127.56546020075166
0
LINE
5
109
100
AcDbEntity
8
0
100
AcDbLine
10
-77.367079902759869
20
100.30962990052167
30
0
11
-53.610512486583474
21
100.30962990052167
31
0
0
LINE
5
110
100
AcDbEntity
8
0
100
AcDbLine
10
-59.669001200015174
20
116.97466908067867
30
0
11
-40.022610072976654
21
116.97466908067867
31
0
0
LINE
5
111
100
AcDbEntity
8
0
100
AcDbLine
10
-14.867079902759874
20
185.14609514596884
30
0
11
-14.867079902759874
21
-26.48896456924966
31
0
0
LINE
5
112
100
AcDbEntity
8
0
100
AcDbLine
10
47.632920097240117
20
100.30991973217448
30
0
11
71.482971154759099
21
100.30991973217448
31
0
0
LWPOLYLINE
5
113
100
AcDbEntity
8
0
100
AcDbPolyline
90
4
70
1
43
0.0
10
-84.867079902759883
20
58.309629900521671
10
-80.867079843155238
20
58.309629900521671
10
-80.867079843155238
20
48.309629751510059
10
-84.867079902759883
20
48.309629751510059
0
LWPOLYLINE
5
114
100
AcDbEntity
8
0
100
AcDbPolyline
90
4
70
1
43
0.0
10
51.132920037635472
20
58.30991988118609
10
55.132920097240117
20
58.30991988118609
10
55.132920097240117
20
48.309919732174478
10
51.132920037635472
20
48.309919732174478
0
LWPOLYLINE
5
115
100
AcDbEntity
8
0
100
AcDbPolyline
90
4
70
1
43
0.0
10
27.971414008833779
20
123.23286392354356
10
19.779893565943848
20
128.968628287054
10
17.48558782053966
20
125.69202010989801
10
25.677108263429602
20
119.95625574638758
0
LWPOLYLINE
5
116
100
AcDbEntity
8
0
100
AcDbPolyline
90
4
70
1
43
0.0
10
-14.000000208616257
20
122.00000181794167
10
-3.0000000447034836
20
122.00000181794167
10
-3.0000000447034836
20
111.00000165402889
10
-14.000000208616257
20
111.00000165402889
0
LWPOLYLINE
5
117
100
AcDbEntity
8
0
100
AcDbPolyline
90
4
70
1
43
0.0
10
-16.000000238418579
20
122.00000181794167
10
-27.000000402331352
20
122.00000181794167
10
-27.000000402331352
20
111.00000165402889
10
-16.000000238418579
20
111.00000165402889
0
LWPOLYLINE
5
118
100
AcDbEntity
8
0
100
AcDbPolyline
90
4
70
1
43
0.0
10
-16.000000238418579
20
109.00000162422657
10
-27.000000402331352
20
109.00000162422657
10
-27.000000402331352
20
98.000001460313797
10
-16.000000238418579
20
98.000001460313797
0
LWPOLYLINE
5
119
100
AcDbEntity
8
0
100
AcDbPolyline
90
4
70
1
43
0.0
10
-14.000000208616257
20
98.000001460313797
10
-3.0000000447034836
20
98.000001460313797
10
-3.0000000447034836
20
109.00000162422657
10
-14.000000208616257
20
109.00000162422657
0
ENDSEC
0
SECTION
2
OBJECTS
0
DICTIONARY
5
C
100
AcDbDictionary
3
ACAD_GROUP
350
D
3
ACAD_MLINESTYLE
350
17
0
DICTIONARY
5
D
100
AcDbDictionary
0
DICTIONARY
5
1A
330
C
100
AcDbDictionary
0
DICTIONARY
5
17
100
AcDbDictionary
0
ENDSEC
0
EOF
