0
SECTION
2
HEADER
9
$INSUNITS
70
4
9
$ACADVER
1
AC1014
9
$HANDSEED
5
FFFF
0
ENDSEC
0
SECTION
2
TABLES
0
TABLE
2
VPORT
5
8
100
AcDbSymbolTable
0
ENDTAB
0
TABLE
2
LTYPE
5
5
100
AcDbSymbolTable
0
LTYPE
5
14
100
AcDbSymbolTableRecord
100
AcDbLinetypeTableRecord
2
BYBLOCK
70
0
0
LTYPE
5
15
100
AcDbSymbolTableRecord
100
AcDbLinetypeTableRecord
2
BYLAYER
70
0
0
ENDTAB
0
TABLE
2
LAYER
5
2
100
AcDbSymbolTable
70
2
0
LAYER
5
50
100
AcDbSymbolTableRecord
100
AcDbLayerTableRecord
2
0
70
0
6
CONTINUOUS
0
ENDTAB
0
TABLE
2
STYLE
5
3
100
AcDbSymbolTable
70
1
0
STYLE
5
11
100
AcDbSymbolTableRecord
100
AcDbTextStyleTableRecord
2
STANDARD
70
0
0
ENDTAB
0
TABLE
2
VIEW
5
6
100
AcDbSymbolTable
70
0
0
ENDTAB
0
TABLE
2
UCS
5
7
100
AcDbSymbolTable
70
0
0
ENDTAB
0
TABLE
2
APPID
5
9
100
AcDbSymbolTable
70
2
0
APPID
5
12
100
AcDbSymbolTableRecord
100
AcDbRegAppTableRecord
2
ACAD
70
0
0
ENDTAB
0
TABLE
2
DIMSTYLE
5
A
100
AcDbSymbolTable
70
1
0
ENDTAB
0
TABLE
2
BLOCK_RECORD
5
1
100
AcDbSymbolTable
70
1
0
BLOCK_RECORD
5
1F
100
AcDbSymbolTableRecord
100
AcDbBlockTableRecord
2
*MODEL_SPACE
0
BLOCK_RECORD
5
1B
100
AcDbSymbolTableRecord
100
AcDbBlockTableRecord
2
*PAPER_SPACE
0
ENDTAB
0
ENDSEC
0
SECTION
2
BLOCKS
0
BLOCK
5
20
100
AcDbEntity
100
AcDbBlockBegin
2
*MODEL_SPACE
0
ENDBLK
5
21
100
AcDbEntity
100
AcDbBlockEnd
0
BLOCK
5
1C
100
AcDbEntity
100
AcDbBlockBegin
2
*PAPER_SPACE
0
ENDBLK
5
1D
100
AcDbEntity
100
AcDbBlockEnd
0
ENDSEC
0
SECTION
2
ENTITIES
0
LWPOLYLINE
5
100
100
AcDbEntity
8
0
100
AcDbPolyline
90
4
70
1
43
0.0
10
-30.333691381045792
20
130.42485835929381
10
-22.163982356639686
20
136.19164728004839
10
-20.145606234375553
20
133.33224912150621
10
-28.315315258781709
20
127.56546020075166
0
LWPOLYLINE
5
101
100
AcDbEntity
8
0
100
AcDbPolyline
90
20
70
1
43
0.0
10
-77.367079902759869
20
100.30962990052167
10
-57.661483672786112
20
114.10763692566658
10
-59.669001200015174
20
116.97466908067867
10
-43.285960314235354
20
128.44619780769963
10
-41.278442787006696
20
125.57916565268818
10
-16.511055898415634
20
142.92147665383453
10
-14.865470206821561
20
142.9203496743786
10
-13.219470592835874
20
142.919222411448
10
11.382310071866097
20
125.69287013664179
10
17.118074435376499
20
133.8843905795317
10
33.501115321156362
20
122.41286185251083
10
27.765350957645119
20
114.22134140962143
10
48.616347199663466
20
99.621316661777996
10
48.616347199663466
20
92.62131666177801
10
51.616347199663466
20
92.62131666177801
10
51.616347199663473
20
82.62131666177801
10
-81.429816804557504
20
82.712433334910543
10
-81.416119809822064
20
92.71242395452289
10
-78.41612262393835
20
92.70831485610222
10
-78.406534727623523
20
99.708308289830896
0
LWPOLYLINE
5
102
100
AcDbEntity
8
0
100
AcDbPolyline
90
4
70
1
43
0.0
10
27.971414008833779
20
123.23286392354356
10
19.779893565943848
20
128.968628287054
10
17.48558782053966
20
125.69202010989801
10
25.677108263429602
20
119.95625574638758
0
CIRCLE
5
103
100
AcDbEntity
8
0
100
AcDbCircle
10
-14.889955979961282
20
107.16686925285616
30
0
40
10
210
0
220
0
230
1
0
LINE
5
104
100
AcDbEntity
8
0
100
AcDbLine
10
-21.616027248349155
20
114.56686690775898
30
0
11
-8.1638847115734148
21
114.56686690775898
31
0
0
LINE
5
105
100
AcDbEntity
8
0
100
AcDbLine
10
-13.376173371506574
20
97.282110165536935
30
0
11
-16.403738588416005
21
97.282110165536935
31
0
0
LINE
5
106
100
AcDbEntity
8
0
100
AcDbLine
10
-14.889955979961282
20
107.16686925285616
30
0
11
-15.666488033962814
21
107.16740106087838
31
0
0
LINE
5
107
100
AcDbEntity
8
0
100
AcDbLine
10
-21.626156711925738
20
99.776091235713338
30
0
11
-8.1740267937811577
21
99.757665843162641
31
0
0
ENDSEC
0
SECTION
2
OBJECTS
0
DICTIONARY
5
C
100
AcDbDictionary
3
ACAD_GROUP
350
D
3
ACAD_MLINESTYLE
350
17
0
DICTIONARY
5
D
100
AcDbDictionary
0
DICTIONARY
5
1A
330
C
100
AcDbDictionary
0
DICTIONARY
5
17
100
AcDbDictionary
0
ENDSEC
0
EOF
