0
SECTION
2
HEADER
9
$INSUNITS
70
4
9
$ACADVER
1
AC1014
9
$HANDSEED
5
FFFF
0
ENDSEC
0
SECTION
2
TABLES
0
TABLE
2
VPORT
5
8
100
AcDbSymbolTable
0
ENDTAB
0
TABLE
2
LTYPE
5
5
100
AcDbSymbolTable
0
LTYPE
5
14
100
AcDbSymbolTableRecord
100
AcDbLinetypeTableRecord
2
BYBLOCK
70
0
0
LTYPE
5
15
100
AcDbSymbolTableRecord
100
AcDbLinetypeTableRecord
2
BYLAYER
70
0
0
ENDTAB
0
TABLE
2
LAYER
5
2
100
AcDbSymbolTable
70
2
0
LAYER
5
50
100
AcDbSymbolTableRecord
100
AcDbLayerTableRecord
2
0
70
0
6
CONTINUOUS
0
ENDTAB
0
TABLE
2
STYLE
5
3
100
AcDbSymbolTable
70
1
0
STYLE
5
11
100
AcDbSymbolTableRecord
100
AcDbTextStyleTableRecord
2
STANDARD
70
0
0
ENDTAB
0
TABLE
2
VIEW
5
6
100
AcDbSymbolTable
70
0
0
ENDTAB
0
TABLE
2
UCS
5
7
100
AcDbSymbolTable
70
0
0
ENDTAB
0
TABLE
2
APPID
5
9
100
AcDbSymbolTable
70
2
0
APPID
5
12
100
AcDbSymbolTableRecord
100
AcDbRegAppTableRecord
2
ACAD
70
0
0
ENDTAB
0
TABLE
2
DIMSTYLE
5
A
100
AcDbSymbolTable
70
1
0
ENDTAB
0
TABLE
2
BLOCK_RECORD
5
1
100
AcDbSymbolTable
70
1
0
BLOCK_RECORD
5
1F
100
AcDbSymbolTableRecord
100
AcDbBlockTableRecord
2
*MODEL_SPACE
0
BLOCK_RECORD
5
1B
100
AcDbSymbolTableRecord
100
AcDbBlockTableRecord
2
*PAPER_SPACE
0
ENDTAB
0
ENDSEC
0
SECTION
2
BLOCKS
0
BLOCK
5
20
100
AcDbEntity
100
AcDbBlockBegin
2
*MODEL_SPACE
0
ENDBLK
5
21
100
AcDbEntity
100
AcDbBlockEnd
0
BLOCK
5
1C
100
AcDbEntity
100
AcDbBlockBegin
2
*PAPER_SPACE
0
ENDBLK
5
1D
100
AcDbEntity
100
AcDbBlockEnd
0
ENDSEC
0
SECTION
2
ENTITIES
0
LWPOLYLINE
5
100
100
AcDbEntity
8
0
100
AcDbPolyline
90
16
70
1
43
0.0
10
212.39312599303733
20
-12.039505712009788
10
87.39312599303733
20
-12.039505712009788
10
87.39312599303733
20
-49.039505712009792
10
77.39312599303733
20
-49.039505712009792
10
77.39312599303733
20
-69.039505712009785
10
87.39312599303733
20
-69.039505712009785
10
87.39312599303733
20
-104.0395057120098
10
140.00000208616257
20
-104.0395057120098
10
140.00000208616257
20
-114.0395057120098
10
160.00000208616257
20
-114.0395057120098
10
160.00000208616257
20
-104.0395057120098
10
212.39312599303733
20
-104.0395057120098
10
212.39312599303733
20
-69.039505712009785
10
222.39312599303733
20
-69.039505712009785
10
222.39312599303733
20
-49.039505712009792
10
212.39312599303733
20
-49.039505712009792
0
LWPOLYLINE
5
101
100
AcDbEntity
8
0
100
AcDbPolyline
90
4
70
1
43
0.0
10
129.50000192970037
20
-58.000000864267349
10
155.50000192970037
20
-58.000000864267349
10
155.50000192970037
20
-28.000000864267349
10
129.50000192970037
20
-28.000000864267349
0
CIRCLE
5
102
100
AcDbEntity
8
0
100
AcDbCircle
10
174.07794393479611
20
-47.770226598332791
30
0
40
6.1893234206244898
210
0
220
0
230
1
0
CIRCLE
5
103
100
AcDbEntity
8
0
100
AcDbCircle
10
174.07794393479611
20
-41.580903177708308
30
0
40
3.0872723973587628
210
0
220
0
230
1
0
CIRCLE
5
104
100
AcDbEntity
8
0
100
AcDbCircle
10
174.07794393479611
20
-56.711195828118043
30
0
40
1.1159596360098731
210
0
220
0
230
1
0
CIRCLE
5
105
100
AcDbEntity
8
0
100
AcDbCircle
10
174.07794393479611
20
-27.510154449426061
30
0
40
1.0779891805701209
210
0
220
0
230
1
0
CIRCLE
5
106
100
AcDbEntity
8
0
100
AcDbCircle
10
170.64241719674126
20
-22.113103014923428
30
0
40
1.5000000000000104
210
0
220
0
230
1
0
CIRCLE
5
107
100
AcDbEntity
8
0
100
AcDbCircle
10
129.62797162165077
20
-22.113103014923428
30
0
40
1.5000000000000036
210
0
220
0
230
1
0
CIRCLE
5
108
100
AcDbEntity
8
0
100
AcDbCircle
10
170.64241719674126
20
-64.342307921655433
30
0
40
1.5000000000000009
210
0
220
0
230
1
0
CIRCLE
5
109
100
AcDbEntity
8
0
100
AcDbCircle
10
129.62797162165077
20
-64.342307921655433
30
0
40
1.5000000000000036
210
0
220
0
230
1
0
LWPOLYLINE
5
110
100
AcDbEntity
8
0
100
AcDbPolyline
90
4
70
1
43
0.0
10
191.00000284612179
20
-54.000000804662704
10
196.00000292062759
20
-54.000000804662704
10
196.00000292062759
20
-44.000000655651093
10
191.00000284612179
20
-44.000000655651093
0
LWPOLYLINE
5
111
100
AcDbEntity
8
0
100
AcDbPolyline
90
4
70
1
43
0.0
10
145.00000208616257
20
-111.5395057120098
10
155.00000208616257
20
-111.5395057120098
10
155.00000208616257
20
-107.5395057120098
10
145.00000208616257
20
-107.5395057120098
0
LWPOLYLINE
5
112
100
AcDbEntity
8
0
100
AcDbPolyline
90
4
70
1
43
0.0
10
79.89312599303733
20
-64.039505712009785
10
83.893125993037344
20
-64.039505712009785
10
83.893125993037344
20
-54.039505712009792
10
79.89312599303733
20
-54.039505712009792
0
LWPOLYLINE
5
113
100
AcDbEntity
8
0
100
AcDbPolyline
90
4
70
1
43
0.0
10
215.89312599303736
20
-64.039505712009785
10
219.89312599303733
20
-64.039505712009785
10
219.89312599303733
20
-54.039505712009792
10
215.89312599303736
20
-54.039505712009792
0
ENDSEC
0
SECTION
2
OBJECTS
0
DICTIONARY
5
C
100
AcDbDictionary
3
ACAD_GROUP
350
D
3
ACAD_MLINESTYLE
350
17
0
DICTIONARY
5
D
100
AcDbDictionary
0
DICTIONARY
5
1A
330
C
100
AcDbDictionary
0
DICTIONARY
5
17
100
AcDbDictionary
0
ENDSEC
0
EOF
