0
SECTION
2
HEADER
9
$INSUNITS
70
4
9
$ACADVER
1
AC1014
9
$HANDSEED
5
FFFF
0
ENDSEC
0
SECTION
2
TABLES
0
TABLE
2
VPORT
5
8
100
AcDbSymbolTable
0
ENDTAB
0
TABLE
2
LTYPE
5
5
100
AcDbSymbolTable
0
LTYPE
5
14
100
AcDbSymbolTableRecord
100
AcDbLinetypeTableRecord
2
BYBLOCK
70
0
0
LTYPE
5
15
100
AcDbSymbolTableRecord
100
AcDbLinetypeTableRecord
2
BYLAYER
70
0
0
ENDTAB
0
TABLE
2
LAYER
5
2
100
AcDbSymbolTable
70
2
0
LAYER
5
50
100
AcDbSymbolTableRecord
100
AcDbLayerTableRecord
2
0
70
0
6
CONTINUOUS
0
ENDTAB
0
TABLE
2
STYLE
5
3
100
AcDbSymbolTable
70
1
0
STYLE
5
11
100
AcDbSymbolTableRecord
100
AcDbTextStyleTableRecord
2
STANDARD
70
0
0
ENDTAB
0
TABLE
2
VIEW
5
6
100
AcDbSymbolTable
70
0
0
ENDTAB
0
TABLE
2
UCS
5
7
100
AcDbSymbolTable
70
0
0
ENDTAB
0
TABLE
2
APPID
5
9
100
AcDbSymbolTable
70
2
0
APPID
5
12
100
AcDbSymbolTableRecord
100
AcDbRegAppTableRecord
2
ACAD
70
0
0
ENDTAB
0
TABLE
2
DIMSTYLE
5
A
100
AcDbSymbolTable
70
1
0
ENDTAB
0
TABLE
2
BLOCK_RECORD
5
1
100
AcDbSymbolTable
70
1
0
BLOCK_RECORD
5
1F
100
AcDbSymbolTableRecord
100
AcDbBlockTableRecord
2
*MODEL_SPACE
0
BLOCK_RECORD
5
1B
100
AcDbSymbolTableRecord
100
AcDbBlockTableRecord
2
*PAPER_SPACE
0
ENDTAB
0
ENDSEC
0
SECTION
2
BLOCKS
0
BLOCK
5
20
100
AcDbEntity
100
AcDbBlockBegin
2
*MODEL_SPACE
0
ENDBLK
5
21
100
AcDbEntity
100
AcDbBlockEnd
0
BLOCK
5
1C
100
AcDbEntity
100
AcDbBlockBegin
2
*PAPER_SPACE
0
ENDBLK
5
1D
100
AcDbEntity
100
AcDbBlockEnd
0
ENDSEC
0
SECTION
2
ENTITIES
0
LINE
5
100
100
AcDbEntity
8
0
100
AcDbLine
10
55
20
125
30
0
11
55
21
0
31
0
0
CIRCLE
5
101
100
AcDbEntity
8
0
100
AcDbCircle
10
98.135835167712514
20
46.513448124739547
30
0
40
1.0000000000000004
210
0
220
0
230
1
0
CIRCLE
5
102
100
AcDbEntity
8
0
100
AcDbCircle
10
98.083956030156088
20
26.232614796853628
30
0
40
6.2816471650953529
210
0
220
0
230
1
0
CIRCLE
5
103
100
AcDbEntity
8
0
100
AcDbCircle
10
98.083956030156088
20
32.514261961948982
30
0
40
3.011515130426234
210
0
220
0
230
1
0
CIRCLE
5
104
100
AcDbEntity
8
0
100
AcDbCircle
10
98.083956030156088
20
17.294819782967952
30
0
40
1.0000000000000089
210
0
220
0
230
1
0
CIRCLE
5
105
100
AcDbEntity
8
0
100
AcDbCircle
10
70.500001050531864
20
15.000000223517418
30
0
40
2.5
210
0
220
0
230
1
0
LWPOLYLINE
5
106
100
AcDbEntity
8
0
100
AcDbPolyline
90
4
70
1
43
0.0
10
102.00000151991844
20
62.000000923871994
10
86.000001281499863
20
62.000000923871994
10
86.000001281499863
20
50.00000074505806
10
102.00000151991844
20
50.00000074505806
0
CIRCLE
5
107
100
AcDbEntity
8
0
100
AcDbCircle
10
113.59381727528432
20
64.521002877539829
30
0
40
1.5000000000000002
210
0
220
0
230
1
0
CIRCLE
5
108
100
AcDbEntity
8
0
100
AcDbCircle
10
72.567078289620596
20
52.481040716741497
30
0
40
1.5000000000000002
210
0
220
0
230
1
0
CIRCLE
5
109
100
AcDbEntity
8
0
100
AcDbCircle
10
61.000000908970833
20
79.000001177191734
30
0
40
1.5000000000000049
210
0
220
0
230
1
0
CIRCLE
5
110
100
AcDbEntity
8
0
100
AcDbCircle
10
60.657503191527738
20
108.33451729321274
30
0
40
1.5000000000000022
210
0
220
0
230
1
0
CIRCLE
5
111
100
AcDbEntity
8
0
100
AcDbCircle
10
114.56175108448939
20
114.32792013378155
30
0
40
1.499999999999996
210
0
220
0
230
1
0
LINE
5
112
100
AcDbEntity
8
0
100
AcDbLine
10
133.5
20
52.5
30
0
11
133.5
21
72.5
31
0
0
LINE
5
113
100
AcDbEntity
8
0
100
AcDbLine
10
133.5
20
72.5
30
0
11
130
21
72.5
31
0
0
LINE
5
114
100
AcDbEntity
8
0
100
AcDbLine
10
130
20
72.5
30
0
11
130
21
125
31
0
0
LINE
5
115
100
AcDbEntity
8
0
100
AcDbLine
10
133.5
20
52.5
30
0
11
130.00000193715096
21
52.5
31
0
0
LINE
5
116
100
AcDbEntity
8
0
100
AcDbLine
10
130.00000193715096
20
52.5
30
0
11
130
21
0
31
0
0
LINE
5
117
100
AcDbEntity
8
0
100
AcDbLine
10
130
20
125
30
0
11
102.5
21
125
31
0
0
LINE
5
118
100
AcDbEntity
8
0
100
AcDbLine
10
102.5
20
125
30
0
11
102.5
21
128.5
31
0
0
LINE
5
119
100
AcDbEntity
8
0
100
AcDbLine
10
102.5
20
128.5
30
0
11
87.5
21
128.5
31
0
0
LINE
5
120
100
AcDbEntity
8
0
100
AcDbLine
10
160
20
62.5
30
0
11
30
21
62.5
31
0
0
LINE
5
121
100
AcDbEntity
8
0
100
AcDbLine
10
130
20
0
30
0
11
102.5
21
0
31
0
0
LINE
5
122
100
AcDbEntity
8
0
100
AcDbLine
10
102.5
20
0
30
0
11
102.5
21
-3.4999999999999964
31
0
0
LINE
5
123
100
AcDbEntity
8
0
100
AcDbLine
10
102.5
20
-3.4999999999999964
30
0
11
87.5
21
-3.4999999999999964
31
0
0
LINE
5
124
100
AcDbEntity
8
0
100
AcDbLine
10
87.5
20
128.5
30
0
11
87.5
21
125.00000186264515
31
0
0
LINE
5
125
100
AcDbEntity
8
0
100
AcDbLine
10
87.5
20
125.00000186264515
30
0
11
55
21
125
31
0
0
LINE
5
126
100
AcDbEntity
8
0
100
AcDbLine
10
87.5
20
-3.4999999999999964
30
0
11
87.5
21
3.8857805861880479e-15
31
0
0
LINE
5
127
100
AcDbEntity
8
0
100
AcDbLine
10
87.5
20
3.8857805861880479e-15
30
0
11
55
21
0
31
0
0
ENDSEC
0
SECTION
2
OBJECTS
0
DICTIONARY
5
C
100
AcDbDictionary
3
ACAD_GROUP
350
D
3
ACAD_MLINESTYLE
350
17
0
DICTIONARY
5
D
100
AcDbDictionary
0
DICTIONARY
5
1A
330
C
100
AcDbDictionary
0
DICTIONARY
5
17
100
AcDbDictionary
0
ENDSEC
0
EOF
